<svg xmlns="http://www.w3.org/2000/svg" version="1.1" xmlns:xlink="http://www.w3.org/1999/xlink" width="512" height="512" x="0" y="0" viewBox="0 0 512 512" style="enable-background:new 0 0 512 512" xml:space="preserve" class=""><g><path d="m418.745 270.971-35.559 37.711-1.711 58.268c-.232 7.923-6.601 14.292-14.524 14.525l-58.268 1.711-37.711 35.56V512h146.583v-79.476c0-8.268 6.703-14.971 14.971-14.971H512V270.971zM270.971 0v93.254l37.711 35.56 58.268 1.711c7.923.233 14.292 6.601 14.524 14.525l1.711 58.268 35.559 37.712H512V94.446h-79.476c-8.268 0-14.971-6.703-14.971-14.971V0zM93.254 241.029l35.56-37.712 1.711-58.268c.233-7.923 6.601-14.292 14.525-14.525l58.268-1.711 37.712-35.56V0H94.446v79.476c0 8.268-6.703 14.971-14.971 14.971H0V241.03h93.254zM241.029 512v-93.254l-37.712-35.56-58.268-1.711c-7.923-.233-14.292-6.601-14.525-14.525l-1.711-58.268-35.56-37.711H0v146.583h79.476c8.268 0 14.971 6.703 14.971 14.971V512z" fill="#bebebe" opacity="1" data-original="#000000" class=""></path><path d="M64.505 0H15.934C7.134 0 0 7.134 0 15.934v48.571h64.505zM512 64.505V15.934C512 7.134 504.866 0 496.066 0h-48.571v64.505zM0 447.495v48.571C0 504.866 7.134 512 15.934 512h48.571v-64.505zM447.495 512h48.571c8.8 0 15.934-7.134 15.934-15.934v-48.571h-64.505zM353.425 209.886l-1.464-49.847-49.848-1.464a14.97 14.97 0 0 1-9.831-4.073L256 120.291l-36.283 34.212a14.972 14.972 0 0 1-9.831 4.073l-49.847 1.464-1.464 49.847a14.972 14.972 0 0 1-4.073 9.831L120.29 256l34.212 36.283a14.972 14.972 0 0 1 4.073 9.831l1.464 49.847 49.847 1.464a14.972 14.972 0 0 1 9.831 4.073L256 391.709l36.282-34.212a14.974 14.974 0 0 1 9.831-4.073l49.848-1.464 1.464-49.847a14.97 14.97 0 0 1 4.072-9.831L391.709 256l-34.212-36.283a14.961 14.961 0 0 1-4.072-9.831zM256 314.821c-32.434 0-58.821-26.387-58.821-58.821s26.387-58.821 58.821-58.821 58.821 26.387 58.821 58.821-26.387 58.821-58.821 58.821z" fill="#bebebe" opacity="1" data-original="#000000" class=""></path><circle cx="256" cy="256" r="28.879" fill="#bebebe" opacity="1" data-original="#000000" class=""></circle></g></svg>