<svg id="Layer_3" height="512" viewBox="0 0 64 64" width="512" xmlns="http://www.w3.org/2000/svg" data-name="Layer 3"><path d="m48 61.856h-32v-4h3v-4h-3v-4h3v-4h-3v-4h3v-4h-3v-4h3v-4h-3v-4h3v-4h-3v-4h3v-4h-3v-4h3v-4h-3v-4h8v3h4l-.001-3h4.001v3l3.999-.001v-2.999h4.001v3h4l-.001-3h4z" fill="#aaa"/><path d="m48 1.856h-4v3h-4v-3h-4v3h-4v-3h-4v3h-2.249a35.194 35.194 0 0 0 22.249 52.713z" fill="#bababa"/><g fill="#d3d3d3"><path d="m21.31 30.435 26.69-21.092v-4.913l-27.348 21.149a35.241 35.241 0 0 0 .658 4.856z"/><path d="m48 26.3-21.443 16.579a35.181 35.181 0 0 0 2.558 3.34l18.885-14.919z"/><path d="m48 36.3-16.3 12.606a35.661 35.661 0 0 0 3.252 2.7l13.048-10.306z"/></g><path d="m28 13.856h8v4h-8z" fill="#5b5b5b"/><path d="m30 17.856h4v19h-4z" fill="#727272"/><path d="m32 17.856h2v19h-2z" fill="#898989"/><rect fill="#785349" height="24" rx="4" width="8" x="28" y="31.856"/><path d="m32.338 31.89a3.978 3.978 0 0 0 -1.338 2.966v16a3.986 3.986 0 0 0 3.662 3.966 3.974 3.974 0 0 0 1.338-2.966v-16a3.988 3.988 0 0 0 -3.662-3.966z" fill="#916658"/><path d="m40 1h-4a1 1 0 0 0 -1 1v2h-2v-2a1 1 0 0 0 -1-1h-4a1 1 0 0 0 -1 1v2h-2v-2a1 1 0 0 0 -1-1h-8a1 1 0 0 0 -1 1v4a1 1 0 0 0 1 1h2v2h-2a1 1 0 0 0 -1 1v4a1 1 0 0 0 1 1h2v2h-2a1 1 0 0 0 -1 1v4a1 1 0 0 0 1 1h2v2h-2a1 1 0 0 0 -1 1v4a1 1 0 0 0 1 1h2v2h-2a1 1 0 0 0 -1 1v4a1 1 0 0 0 1 1h2v2h-2a1 1 0 0 0 -1 1v4a1 1 0 0 0 1 1h2v2h-2a1 1 0 0 0 -1 1v4a1 1 0 0 0 1 1h2v2h-2a1 1 0 0 0 -1 1v4a1 1 0 0 0 1 1h32a1 1 0 0 0 1-1v-60a1 1 0 0 0 -1-1h-4a1 1 0 0 0 -1 1v2h-2v-2a1 1 0 0 0 -1-1zm4 5a1 1 0 0 0 1-1v-2h2v58h-30v-2h2a1 1 0 0 0 1-1v-4a1 1 0 0 0 -1-1h-2v-2h2a1 1 0 0 0 1-1v-4a1 1 0 0 0 -1-1h-2v-2h2a1 1 0 0 0 1-1v-4a1 1 0 0 0 -1-1h-2v-2h2a1 1 0 0 0 1-1v-4a1 1 0 0 0 -1-1h-2v-2h2a1 1 0 0 0 1-1v-4a1 1 0 0 0 -1-1h-2v-2h2a1 1 0 0 0 1-1v-4a1 1 0 0 0 -1-1h-2v-2h2a1 1 0 0 0 1-1v-4a1 1 0 0 0 -1-1h-2v-2h6v2a1 1 0 0 0 1 1h4a1 1 0 0 0 1-1v-2h2v2a1 1 0 0 0 1 1h4a1 1 0 0 0 1-1v-2h2v2a1 1 0 0 0 1 1z"/><path d="m36 13h-8a1 1 0 0 0 -1 1v4a1 1 0 0 0 1 1h1v13.026a4.977 4.977 0 0 0 -2 3.974v16a5 5 0 0 0 10 0v-16a4.977 4.977 0 0 0 -2-3.974v-13.026h1a1 1 0 0 0 1-1v-4a1 1 0 0 0 -1-1zm-1 39a3 3 0 0 1 -6 0v-16a3 3 0 0 1 6 0zm-2-20.9a5 5 0 0 0 -2 0v-12.1h2zm2-14.1h-6v-2h6z"/></svg>